<svg xmlns="http://www.w3.org/2000/svg" xmlns:xlink="http://www.w3.org/1999/xlink" width="500" zoomAndPan="magnify" viewBox="0 0 375 374.999991" height="500" preserveAspectRatio="xMidYMid meet" version="1.2"><defs><clipPath id="b04634c744"><path d="M 97.738281 129.542969 L 148.738281 129.542969 L 148.738281 186.542969 L 97.738281 186.542969 Z M 97.738281 129.542969 "/></clipPath><clipPath id="f6448c04ac"><rect x="0" width="118" y="0" height="92"/></clipPath><clipPath id="1311525a85"><rect x="0" width="158" y="0" height="116"/></clipPath><clipPath id="032e6e735d"><path d="M 7 89 L 58.71875 89 L 58.71875 103 L 7 103 Z M 7 89 "/></clipPath><clipPath id="df8c09bdc5"><rect x="0" width="59" y="0" height="116"/></clipPath></defs><g id="3117b7a563"><rect x="0" width="375" y="0" height="374.999991" style="fill:#ffffff;fill-opacity:1;stroke:none;"/><rect x="0" width="375" y="0" height="374.999991" style="fill:#fff8d9;fill-opacity:1;stroke:none;"/><g clip-rule="nonzero" clip-path="url(#b04634c744)"><path style=" stroke:none;fill-rule:nonzero;fill:#000000;fill-opacity:1;" d="M 148.769531 151.222656 C 148.734375 152.21875 148.605469 153.207031 148.410156 154.183594 C 148.066406 155.90625 147.445312 157.519531 146.589844 159.050781 C 146.078125 159.96875 145.496094 160.835938 144.808594 161.628906 C 144.175781 162.355469 143.484375 163.015625 142.789062 163.679688 C 142.199219 164.242188 141.617188 164.816406 141.0625 165.417969 C 140.539062 165.988281 140.039062 166.578125 139.574219 167.191406 C 139.0625 167.871094 138.59375 168.574219 138.210938 169.332031 C 137.722656 170.296875 137.417969 171.316406 137.230469 172.378906 C 137.003906 173.65625 136.980469 174.949219 137.007812 176.242188 C 137.027344 177.082031 137.117188 177.917969 137.246094 178.746094 C 137.265625 178.878906 137.3125 179.003906 137.378906 179.121094 C 137.808594 179.855469 138.308594 180.535156 138.875 181.171875 C 140.011719 182.449219 141.320312 183.535156 142.710938 184.519531 C 142.972656 184.703125 143.234375 184.886719 143.503906 185.058594 C 143.65625 185.15625 143.722656 185.292969 143.738281 185.464844 C 143.773438 185.941406 143.433594 186.378906 142.964844 186.46875 C 142.84375 186.492188 142.734375 186.476562 142.625 186.417969 C 142.015625 186.097656 141.453125 185.710938 140.910156 185.292969 C 140.109375 184.675781 139.355469 184 138.660156 183.269531 C 137.542969 182.09375 136.550781 180.828125 135.796875 179.390625 C 135.332031 178.507812 135.023438 177.570312 134.902344 176.578125 C 134.832031 176.019531 134.800781 175.457031 134.769531 174.890625 C 134.648438 172.667969 133.933594 170.667969 132.523438 168.925781 C 131.996094 168.277344 131.429688 167.671875 130.808594 167.117188 C 130.800781 167.109375 130.796875 167.105469 130.789062 167.101562 C 130.621094 166.960938 130.617188 166.960938 130.550781 167.171875 C 130.101562 168.59375 129.382812 169.871094 128.425781 171.011719 C 127.441406 172.191406 126.261719 173.144531 124.945312 173.9375 C 123.089844 175.050781 121.089844 175.738281 118.957031 176.074219 C 117.59375 176.292969 116.222656 176.34375 114.847656 176.28125 C 112.867188 176.191406 110.941406 175.808594 109.09375 175.074219 C 107.597656 174.484375 106.222656 173.675781 104.960938 172.679688 C 104.109375 172.003906 103.320312 171.257812 102.582031 170.464844 C 101.546875 169.351562 100.601562 168.167969 99.804688 166.871094 C 99.730469 166.753906 99.648438 166.675781 99.5 166.640625 C 99.25 166.578125 99.113281 166.320312 99.175781 166.085938 C 99.238281 165.84375 99.464844 165.691406 99.695312 165.734375 C 99.945312 165.78125 100.121094 166.003906 100.074219 166.253906 C 100.050781 166.40625 100.097656 166.503906 100.183594 166.617188 C 100.695312 167.292969 101.242188 167.9375 101.820312 168.558594 C 103.488281 170.355469 105.390625 171.847656 107.542969 173.019531 C 109.511719 174.09375 111.597656 174.820312 113.820312 175.15625 C 114.382812 175.238281 114.953125 175.304688 115.527344 175.3125 C 115.792969 175.320312 116.058594 175.351562 116.328125 175.34375 C 117.804688 175.308594 119.257812 175.121094 120.671875 174.683594 C 122.222656 174.199219 123.648438 173.484375 124.941406 172.507812 C 126.355469 171.449219 127.515625 170.15625 128.449219 168.660156 C 128.890625 167.949219 129.273438 167.214844 129.59375 166.445312 C 129.714844 166.160156 129.71875 166.148438 129.488281 165.949219 C 129.046875 165.566406 128.597656 165.1875 128.152344 164.804688 C 127.300781 164.074219 126.488281 163.300781 125.734375 162.46875 C 125.128906 161.800781 124.585938 161.085938 124.121094 160.3125 C 123.808594 159.789062 123.53125 159.246094 123.308594 158.675781 C 123.238281 158.492188 123.140625 158.417969 122.933594 158.40625 C 122.371094 158.375 121.820312 158.242188 121.277344 158.078125 C 120.320312 157.789062 119.425781 157.351562 118.5625 156.847656 C 117.695312 156.34375 116.832031 155.832031 115.894531 155.46875 C 114.914062 155.085938 113.902344 154.816406 112.878906 154.578125 C 112.765625 154.550781 112.648438 154.523438 112.53125 154.5 C 112.359375 154.460938 112.347656 154.464844 112.289062 154.632812 C 112.160156 154.996094 111.984375 155.328125 111.753906 155.632812 C 111.183594 156.378906 110.445312 156.902344 109.582031 157.253906 C 109.070312 157.464844 108.542969 157.605469 107.992188 157.660156 C 107.785156 157.679688 107.75 157.714844 107.761719 157.929688 C 107.800781 158.671875 107.488281 159.269531 107.007812 159.796875 C 106.574219 160.28125 106.042969 160.632812 105.449219 160.886719 C 105.347656 160.929688 105.273438 160.988281 105.21875 161.082031 C 105.136719 161.210938 105.015625 161.28125 104.859375 161.25 C 104.660156 161.210938 104.542969 161.011719 104.605469 160.824219 C 104.671875 160.632812 104.882812 160.515625 105.050781 160.621094 C 105.210938 160.722656 105.316406 160.667969 105.449219 160.582031 C 105.984375 160.238281 106.464844 159.832031 106.851562 159.324219 C 107.097656 158.996094 107.246094 158.628906 107.289062 158.21875 C 107.296875 158.160156 107.300781 158.101562 107.296875 158.042969 C 107.289062 157.738281 107.253906 157.710938 106.949219 157.691406 C 106.039062 157.636719 105.167969 157.433594 104.355469 157.019531 C 104.21875 156.953125 104.097656 156.90625 103.9375 156.929688 C 103.652344 156.96875 103.40625 156.75 103.382812 156.46875 C 103.363281 156.207031 103.570312 155.960938 103.839844 155.929688 C 104.082031 155.902344 104.332031 156.070312 104.382812 156.328125 C 104.414062 156.5 104.503906 156.582031 104.65625 156.632812 C 105.417969 156.890625 106.191406 157.089844 107.003906 157.113281 C 107.625 157.128906 108.214844 156.984375 108.78125 156.75 C 109.457031 156.476562 110.070312 156.101562 110.601562 155.605469 C 110.949219 155.28125 111.21875 154.898438 111.425781 154.476562 C 111.507812 154.300781 111.488281 154.261719 111.296875 154.210938 C 110.652344 154.035156 110.003906 153.867188 109.371094 153.652344 C 107.792969 153.109375 106.355469 152.320312 105.097656 151.21875 C 104.21875 150.453125 103.460938 149.582031 102.777344 148.640625 C 101.957031 147.511719 101.269531 146.308594 100.679688 145.046875 C 99.96875 143.515625 99.464844 141.917969 99.007812 140.300781 C 98.761719 139.433594 98.507812 138.574219 98.257812 137.707031 C 98.21875 137.574219 98.160156 137.476562 98.019531 137.414062 C 97.808594 137.316406 97.738281 137.046875 97.847656 136.839844 C 97.945312 136.652344 98.1875 136.566406 98.382812 136.652344 C 98.589844 136.746094 98.710938 136.988281 98.609375 137.1875 C 98.519531 137.363281 98.550781 137.507812 98.605469 137.675781 C 99.023438 138.898438 99.488281 140.105469 99.945312 141.316406 C 100.257812 142.140625 100.527344 142.988281 100.890625 143.792969 C 101.554688 145.277344 102.328125 146.695312 103.402344 147.933594 C 103.777344 148.363281 104.164062 148.785156 104.546875 149.210938 C 104.789062 149.476562 105.054688 149.488281 105.351562 149.398438 C 105.632812 149.308594 105.871094 149.140625 106.085938 148.945312 C 106.398438 148.667969 106.636719 148.339844 106.828125 147.976562 C 107.285156 147.121094 107.535156 146.21875 107.535156 145.242188 C 107.539062 144.480469 107.453125 143.730469 107.328125 142.984375 C 107.136719 141.824219 106.929688 140.671875 106.746094 139.511719 C 106.628906 138.785156 106.542969 138.054688 106.492188 137.320312 C 106.464844 136.949219 106.457031 136.578125 106.453125 136.207031 C 106.449219 135.882812 106.449219 135.554688 106.507812 135.230469 C 106.53125 135.101562 106.5 135.03125 106.386719 134.957031 C 106.125 134.785156 106.054688 134.441406 106.203125 134.167969 C 106.382812 133.847656 106.769531 133.761719 107.085938 133.972656 C 107.367188 134.160156 107.425781 134.5625 107.214844 134.839844 C 107.199219 134.855469 107.1875 134.878906 107.167969 134.886719 C 106.898438 135.039062 106.90625 135.304688 106.925781 135.550781 C 106.953125 135.914062 106.949219 136.28125 106.992188 136.640625 C 107.074219 137.289062 107.128906 137.941406 107.203125 138.589844 C 107.285156 139.3125 107.371094 140.035156 107.476562 140.757812 C 107.59375 141.558594 107.738281 142.355469 107.863281 143.152344 C 108.023438 144.191406 108.144531 145.226562 108.117188 146.28125 C 108.078125 147.9375 107.273438 149.113281 105.867188 149.925781 C 105.808594 149.957031 105.746094 149.984375 105.6875 150.015625 C 105.523438 150.101562 105.519531 150.128906 105.648438 150.246094 C 107.171875 151.609375 108.921875 152.546875 110.898438 153.074219 C 111.933594 153.351562 112.988281 153.527344 114.050781 153.640625 C 115.210938 153.761719 116.28125 154.136719 117.273438 154.746094 C 118.007812 155.195312 118.742188 155.644531 119.523438 156.015625 C 120.453125 156.457031 121.410156 156.820312 122.40625 157.074219 C 122.800781 157.171875 122.796875 157.171875 122.707031 156.777344 C 122.539062 156.082031 122.429688 155.378906 122.371094 154.667969 C 122.328125 154.15625 122.285156 153.644531 122.292969 153.132812 C 122.308594 151.84375 122.441406 150.566406 122.710938 149.308594 C 123.082031 147.589844 123.675781 145.953125 124.5 144.398438 C 124.996094 143.460938 125.574219 142.566406 126.183594 141.695312 C 127.203125 140.234375 128.257812 138.792969 129.152344 137.246094 C 129.835938 136.070312 130.453125 134.859375 130.886719 133.5625 C 131.136719 132.8125 131.300781 132.042969 131.386719 131.257812 C 131.40625 131.066406 131.429688 130.875 131.457031 130.683594 C 131.476562 130.558594 131.460938 130.460938 131.347656 130.371094 C 131.160156 130.230469 131.136719 130.046875 131.242188 129.859375 C 131.347656 129.671875 131.585938 129.566406 131.773438 129.621094 C 132.007812 129.691406 132.132812 129.925781 132.019531 130.148438 C 131.933594 130.3125 131.929688 130.472656 131.921875 130.644531 C 131.894531 131.246094 131.804688 131.84375 131.679688 132.429688 C 131.425781 133.625 131.085938 134.792969 130.585938 135.910156 C 130.183594 136.808594 129.746094 137.683594 129.285156 138.550781 C 128.503906 140.019531 127.59375 141.417969 126.746094 142.847656 C 126.054688 144.007812 125.453125 145.207031 124.960938 146.464844 C 124.570312 147.46875 124.21875 148.484375 124.019531 149.546875 C 123.871094 150.316406 123.792969 151.089844 123.75 151.871094 C 123.722656 152.371094 123.738281 152.863281 123.769531 153.359375 C 123.863281 154.855469 124.167969 156.300781 124.761719 157.683594 C 125.074219 158.417969 125.457031 159.113281 125.925781 159.757812 C 126.148438 160.058594 126.402344 160.328125 126.65625 160.597656 C 127.269531 161.246094 127.914062 161.863281 128.578125 162.460938 C 129.433594 163.222656 130.308594 163.957031 131.1875 164.6875 C 131.972656 165.347656 132.738281 166.027344 133.445312 166.777344 C 134.226562 167.609375 134.910156 168.511719 135.414062 169.542969 C 135.832031 170.398438 136.085938 171.304688 136.246094 172.238281 C 136.261719 172.308594 136.261719 172.386719 136.316406 172.464844 C 136.390625 172.046875 136.457031 171.636719 136.542969 171.234375 C 136.847656 169.808594 137.363281 168.472656 138.160156 167.25 C 138.527344 166.6875 138.945312 166.167969 139.390625 165.667969 C 139.753906 165.261719 140.128906 164.871094 140.523438 164.503906 C 141.046875 164.015625 141.578125 163.539062 142.113281 163.070312 C 143.234375 162.089844 144.289062 161.046875 145.085938 159.769531 C 145.570312 158.992188 145.984375 158.179688 146.34375 157.339844 C 146.917969 155.996094 147.382812 154.617188 147.671875 153.183594 C 147.820312 152.441406 147.910156 151.691406 147.9375 150.929688 C 147.988281 149.546875 147.789062 148.207031 147.351562 146.898438 C 147.246094 146.574219 147.132812 146.25 147.03125 145.925781 C 146.980469 145.765625 146.90625 145.65625 146.742188 145.589844 C 146.503906 145.492188 146.386719 145.253906 146.414062 145.011719 C 146.441406 144.773438 146.601562 144.585938 146.839844 144.523438 C 147.074219 144.457031 147.265625 144.53125 147.417969 144.710938 C 147.5625 144.886719 147.605469 145.082031 147.507812 145.292969 C 147.484375 145.339844 147.460938 145.386719 147.425781 145.425781 C 147.378906 145.488281 147.375 145.542969 147.414062 145.609375 C 148.003906 146.59375 148.292969 147.683594 148.535156 148.789062 C 148.714844 149.589844 148.796875 150.40625 148.769531 151.222656 Z M 148.769531 151.222656 "/></g><path style=" stroke:none;fill-rule:nonzero;fill:#136d41;fill-opacity:1;" d="M 130.988281 165.90625 C 130.964844 165.9375 130.933594 165.957031 130.890625 165.953125 C 130.816406 165.949219 130.742188 165.941406 130.683594 165.886719 C 130.601562 165.8125 130.511719 165.746094 130.441406 165.660156 C 130.40625 165.613281 130.367188 165.5625 130.320312 165.53125 C 130.078125 165.375 129.867188 165.183594 129.617188 165.039062 C 129.507812 164.980469 129.371094 164.929688 129.316406 164.792969 C 129.308594 164.777344 129.285156 164.757812 129.269531 164.753906 C 129.144531 164.726562 129.082031 164.640625 129.03125 164.535156 C 129.007812 164.488281 128.96875 164.457031 128.921875 164.429688 C 128.78125 164.355469 128.664062 164.257812 128.546875 164.15625 C 128.382812 164.015625 128.210938 163.890625 128.042969 163.757812 C 127.945312 163.679688 127.847656 163.597656 127.773438 163.496094 C 127.683594 163.378906 127.582031 163.273438 127.445312 163.203125 C 127.335938 163.144531 127.238281 163.0625 127.179688 162.941406 C 127.148438 162.882812 127.105469 162.828125 127.046875 162.796875 C 126.871094 162.710938 126.765625 162.558594 126.640625 162.421875 C 126.527344 162.296875 126.40625 162.175781 126.289062 162.054688 C 126.222656 161.984375 126.1875 161.886719 126.085938 161.851562 C 126.070312 161.84375 126.050781 161.824219 126.042969 161.804688 C 125.980469 161.628906 125.816406 161.511719 125.757812 161.332031 C 125.746094 161.292969 125.722656 161.265625 125.6875 161.25 C 125.578125 161.199219 125.523438 161.105469 125.492188 160.992188 C 125.472656 160.9375 125.449219 160.878906 125.398438 160.84375 C 125.34375 160.800781 125.328125 160.730469 125.289062 160.683594 C 125.132812 160.476562 125.003906 160.253906 124.855469 160.042969 C 124.789062 159.949219 124.714844 159.863281 124.6875 159.757812 C 124.628906 159.515625 124.484375 159.316406 124.394531 159.089844 C 124.332031 158.929688 124.238281 158.789062 124.164062 158.636719 C 124.085938 158.480469 124.078125 158.292969 123.953125 158.152344 C 123.945312 158.023438 123.886719 157.914062 123.800781 157.816406 C 123.792969 157.804688 123.78125 157.789062 123.78125 157.777344 C 123.804688 157.640625 123.707031 157.542969 123.679688 157.421875 C 123.671875 157.386719 123.664062 157.34375 123.640625 157.320312 C 123.546875 157.214844 123.527344 157.097656 123.550781 156.964844 C 123.5625 156.878906 123.53125 156.804688 123.476562 156.738281 C 123.402344 156.644531 123.363281 156.539062 123.367188 156.410156 C 123.371094 156.296875 123.355469 156.179688 123.277344 156.074219 C 123.199219 155.976562 123.175781 155.84375 123.199219 155.714844 C 123.214844 155.628906 123.214844 155.554688 123.144531 155.492188 C 123.082031 155.4375 123.066406 155.367188 123.097656 155.292969 C 123.132812 155.203125 123.117188 155.121094 123.082031 155.035156 C 123.007812 154.851562 123 154.65625 122.960938 154.46875 C 122.953125 154.425781 122.964844 154.382812 122.972656 154.335938 C 122.972656 154.308594 122.988281 154.273438 122.980469 154.25 C 122.941406 154.132812 122.886719 154.03125 122.925781 153.890625 C 122.953125 153.785156 122.890625 153.660156 122.882812 153.546875 C 122.867188 153.375 122.859375 153.207031 122.894531 153.035156 C 122.921875 152.90625 122.953125 152.773438 122.921875 152.640625 C 122.914062 152.617188 122.917969 152.59375 122.921875 152.574219 C 122.941406 152.351562 122.957031 152.136719 122.933594 151.910156 C 122.914062 151.726562 122.917969 151.523438 123.007812 151.34375 C 123.035156 151.289062 123.039062 151.234375 123.023438 151.171875 C 122.992188 151.070312 123.003906 150.96875 123.042969 150.867188 C 123.078125 150.777344 123.078125 150.683594 123.078125 150.582031 C 123.070312 150.398438 123.097656 150.214844 123.101562 150.027344 C 123.105469 149.859375 123.15625 149.695312 123.160156 149.527344 C 123.164062 149.421875 123.222656 149.320312 123.195312 149.203125 C 123.179688 149.121094 123.339844 148.976562 123.429688 148.964844 C 123.492188 148.957031 123.546875 149 123.550781 149.066406 C 123.550781 149.097656 123.546875 149.125 123.542969 149.175781 C 123.542969 149.175781 123.535156 149.203125 123.542969 149.222656 C 123.605469 149.410156 123.535156 149.585938 123.511719 149.769531 C 123.503906 149.84375 123.492188 149.914062 123.492188 149.988281 C 123.488281 150.125 123.484375 150.257812 123.429688 150.382812 C 123.421875 150.402344 123.410156 150.429688 123.417969 150.449219 C 123.457031 150.59375 123.398438 150.722656 123.359375 150.855469 C 123.335938 150.941406 123.320312 151.027344 123.378906 151.113281 C 123.414062 151.164062 123.386719 151.226562 123.390625 151.285156 C 123.390625 151.4375 123.34375 151.574219 123.304688 151.714844 C 123.292969 151.765625 123.269531 151.816406 123.273438 151.863281 C 123.277344 152.082031 123.25 152.296875 123.285156 152.511719 C 123.300781 152.609375 123.269531 152.703125 123.265625 152.796875 C 123.257812 152.992188 123.253906 153.183594 123.265625 153.375 C 123.269531 153.449219 123.28125 153.527344 123.265625 153.597656 C 123.242188 153.722656 123.222656 153.84375 123.300781 153.960938 C 123.320312 153.988281 123.316406 154.03125 123.3125 154.070312 C 123.300781 154.15625 123.273438 154.246094 123.335938 154.324219 C 123.34375 154.335938 123.351562 154.355469 123.347656 154.367188 C 123.289062 154.53125 123.363281 154.691406 123.359375 154.851562 C 123.359375 154.929688 123.371094 155 123.421875 155.058594 C 123.476562 155.121094 123.488281 155.1875 123.464844 155.265625 C 123.453125 155.308594 123.445312 155.371094 123.464844 155.394531 C 123.566406 155.503906 123.570312 155.628906 123.550781 155.765625 C 123.546875 155.792969 123.582031 155.832031 123.59375 155.863281 C 123.617188 155.917969 123.65625 155.972656 123.65625 156.03125 C 123.65625 156.1875 123.753906 156.324219 123.75 156.484375 C 123.75 156.511719 123.757812 156.542969 123.773438 156.566406 C 123.863281 156.710938 123.886719 156.871094 123.894531 157.035156 C 123.894531 157.066406 123.894531 157.097656 123.910156 157.121094 C 124.023438 157.300781 124.054688 157.507812 124.15625 157.691406 C 124.1875 157.742188 124.21875 157.800781 124.21875 157.855469 C 124.222656 157.984375 124.285156 158.078125 124.367188 158.167969 C 124.390625 158.195312 124.414062 158.230469 124.417969 158.265625 C 124.449219 158.46875 124.558594 158.632812 124.667969 158.800781 C 124.722656 158.890625 124.792969 158.988281 124.789062 159.109375 C 124.785156 159.164062 124.8125 159.207031 124.855469 159.242188 C 124.894531 159.277344 124.941406 159.316406 124.945312 159.367188 C 124.945312 159.53125 125.054688 159.628906 125.140625 159.75 C 125.222656 159.863281 125.289062 159.988281 125.355469 160.113281 C 125.386719 160.171875 125.417969 160.230469 125.46875 160.273438 C 125.484375 160.289062 125.511719 160.308594 125.511719 160.324219 C 125.5 160.546875 125.722656 160.628906 125.792969 160.8125 C 125.863281 160.988281 125.992188 161.140625 126.132812 161.273438 C 126.136719 161.28125 126.144531 161.285156 126.144531 161.292969 C 126.257812 161.5625 126.484375 161.734375 126.691406 161.925781 C 126.71875 161.949219 126.738281 161.980469 126.757812 162.015625 C 126.820312 162.117188 126.910156 162.191406 127.003906 162.269531 C 127.136719 162.378906 127.253906 162.515625 127.378906 162.640625 C 127.527344 162.792969 127.652344 162.96875 127.828125 163.097656 C 127.9375 163.175781 128.039062 163.273438 128.136719 163.375 C 128.238281 163.488281 128.351562 163.578125 128.484375 163.644531 C 128.59375 163.703125 128.6875 163.765625 128.742188 163.882812 C 128.753906 163.914062 128.78125 163.957031 128.8125 163.964844 C 128.953125 164.007812 129.042969 164.121094 129.144531 164.210938 C 129.382812 164.417969 129.679688 164.554688 129.871094 164.820312 C 129.917969 164.882812 129.984375 164.914062 130.054688 164.9375 C 130.21875 165.003906 130.359375 165.089844 130.457031 165.242188 C 130.5 165.308594 130.5625 165.351562 130.632812 165.375 C 130.761719 165.421875 130.847656 165.527344 130.957031 165.605469 C 131.042969 165.664062 131.050781 165.820312 130.988281 165.90625 Z M 138.53125 181.542969 C 138.519531 181.535156 138.511719 181.519531 138.503906 181.507812 C 138.402344 181.296875 138.230469 181.144531 138.082031 180.96875 C 138.054688 180.9375 138.023438 180.90625 138 180.867188 C 137.875 180.671875 137.773438 180.453125 137.582031 180.304688 C 137.542969 180.277344 137.519531 180.222656 137.503906 180.171875 C 137.472656 180.085938 137.421875 180.015625 137.347656 179.964844 C 137.292969 179.929688 137.273438 179.878906 137.246094 179.820312 C 137.183594 179.675781 137.136719 179.511719 137.015625 179.394531 C 136.984375 179.363281 136.96875 179.320312 136.960938 179.277344 C 136.953125 179.230469 136.933594 179.191406 136.894531 179.164062 C 136.828125 179.109375 136.804688 179.03125 136.769531 178.957031 C 136.722656 178.84375 136.714844 178.710938 136.605469 178.621094 C 136.578125 178.597656 136.574219 178.558594 136.578125 178.519531 C 136.585938 178.480469 136.578125 178.445312 136.558594 178.414062 C 136.503906 178.320312 136.476562 178.222656 136.464844 178.117188 C 136.460938 178.082031 136.445312 178.039062 136.421875 178.019531 C 136.359375 177.964844 136.339844 177.902344 136.355469 177.820312 C 136.367188 177.746094 136.355469 177.667969 136.3125 177.605469 C 136.261719 177.523438 136.261719 177.4375 136.257812 177.347656 C 136.257812 177.273438 136.25 177.203125 136.226562 177.132812 C 136.195312 177.015625 136.125 176.894531 136.207031 176.769531 C 136.21875 176.753906 136.210938 176.722656 136.203125 176.703125 C 136.117188 176.546875 136.15625 176.375 136.140625 176.207031 C 136.113281 175.957031 136.132812 175.703125 136.074219 175.453125 C 136.046875 175.332031 136.03125 175.210938 136.058594 175.082031 C 136.082031 174.972656 136.066406 174.859375 136.019531 174.753906 C 135.992188 174.695312 135.984375 174.625 135.972656 174.5625 C 135.957031 174.449219 135.929688 174.339844 135.917969 174.234375 C 135.90625 174.078125 135.867188 173.933594 135.816406 173.785156 C 135.785156 173.699219 135.804688 173.59375 135.804688 173.5 C 135.804688 173.46875 135.816406 173.441406 135.820312 173.410156 C 135.820312 173.398438 135.820312 173.378906 135.816406 173.367188 C 135.734375 173.207031 135.765625 173.015625 135.664062 172.859375 C 135.605469 172.773438 135.644531 172.652344 135.609375 172.558594 C 135.535156 172.355469 135.480469 172.148438 135.40625 171.949219 C 135.273438 171.582031 135.136719 171.210938 135.046875 170.828125 C 135.035156 170.777344 135.023438 170.730469 134.988281 170.6875 C 134.878906 170.550781 134.828125 170.390625 134.765625 170.230469 C 134.710938 170.09375 134.691406 169.941406 134.589844 169.824219 C 134.570312 169.800781 134.558594 169.757812 134.554688 169.722656 C 134.550781 169.652344 134.519531 169.59375 134.480469 169.539062 C 134.421875 169.453125 134.378906 169.359375 134.351562 169.257812 C 134.335938 169.195312 134.320312 169.125 134.273438 169.078125 C 134.167969 168.976562 134.117188 168.84375 134.054688 168.714844 C 134.039062 168.683594 134.03125 168.640625 134.003906 168.617188 C 133.898438 168.53125 133.835938 168.421875 133.773438 168.296875 C 133.707031 168.15625 133.507812 168.136719 133.394531 168.246094 C 133.304688 168.328125 133.300781 168.402344 133.40625 168.457031 C 133.53125 168.523438 133.609375 168.625 133.667969 168.746094 C 133.789062 168.992188 133.90625 169.238281 134.035156 169.480469 C 134.097656 169.597656 134.144531 169.722656 134.25 169.8125 C 134.289062 169.847656 134.324219 169.890625 134.316406 169.949219 C 134.296875 170.082031 134.375 170.171875 134.441406 170.273438 C 134.535156 170.421875 134.613281 170.585938 134.632812 170.761719 C 134.648438 170.894531 134.679688 171.015625 134.753906 171.117188 C 134.921875 171.332031 134.910156 171.605469 135.027344 171.835938 C 135.039062 171.859375 135.023438 171.894531 135.023438 171.925781 C 135.027344 171.960938 135.027344 172 135.035156 172.035156 C 135.058594 172.148438 135.152344 172.242188 135.125 172.371094 C 135.121094 172.390625 135.148438 172.425781 135.167969 172.445312 C 135.273438 172.546875 135.273438 172.683594 135.28125 172.8125 C 135.285156 172.890625 135.296875 172.960938 135.316406 173.03125 C 135.402344 173.351562 135.527344 173.660156 135.527344 174 C 135.527344 174.035156 135.535156 174.074219 135.542969 174.109375 C 135.566406 174.214844 135.582031 174.324219 135.605469 174.433594 C 135.621094 174.507812 135.59375 174.589844 135.65625 174.660156 C 135.726562 174.738281 135.617188 174.8125 135.636719 174.890625 C 135.648438 174.925781 135.664062 174.964844 135.683594 174.992188 C 135.746094 175.070312 135.75 175.15625 135.722656 175.242188 C 135.691406 175.332031 135.699219 175.417969 135.707031 175.507812 C 135.71875 175.609375 135.746094 175.714844 135.734375 175.816406 C 135.722656 175.90625 135.734375 175.992188 135.746094 176.078125 C 135.769531 176.257812 135.851562 176.429688 135.789062 176.621094 C 135.761719 176.707031 135.886719 176.789062 135.855469 176.894531 C 135.828125 176.988281 135.804688 177.078125 135.859375 177.175781 C 135.871094 177.199219 135.871094 177.234375 135.867188 177.261719 C 135.847656 177.339844 135.867188 177.40625 135.898438 177.476562 C 135.933594 177.542969 135.9375 177.621094 135.9375 177.695312 C 135.9375 177.746094 135.945312 177.796875 135.964844 177.847656 C 136.050781 178.089844 136.144531 178.332031 136.207031 178.582031 C 136.222656 178.648438 136.242188 178.714844 136.296875 178.757812 C 136.378906 178.820312 136.375 178.914062 136.390625 178.996094 C 136.410156 179.09375 136.53125 179.109375 136.550781 179.207031 C 136.554688 179.21875 136.554688 179.234375 136.558594 179.25 C 136.605469 179.414062 136.652344 179.574219 136.785156 179.695312 C 136.847656 179.75 136.875 179.832031 136.910156 179.90625 C 136.988281 180.070312 137.027344 180.257812 137.207031 180.359375 C 137.238281 180.378906 137.257812 180.429688 137.277344 180.46875 C 137.328125 180.578125 137.394531 180.671875 137.480469 180.757812 C 137.535156 180.808594 137.597656 180.863281 137.617188 180.929688 C 137.660156 181.058594 137.746094 181.144531 137.839844 181.230469 C 137.910156 181.296875 137.988281 181.347656 138.003906 181.457031 C 138.007812 181.503906 138.050781 181.53125 138.085938 181.554688 C 138.125 181.582031 138.167969 181.605469 138.175781 181.652344 C 138.210938 181.796875 138.34375 181.875 138.40625 182.003906 C 138.429688 182.058594 138.5 182.09375 138.554688 182.132812 C 138.605469 182.167969 138.671875 182.148438 138.707031 182.089844 C 138.742188 182.039062 138.75 181.976562 138.730469 181.917969 C 138.6875 181.78125 138.691406 181.617188 138.53125 181.542969 Z M 116.226562 155.007812 C 116.320312 155.03125 116.386719 154.976562 116.394531 154.882812 C 116.398438 154.828125 116.390625 154.777344 116.355469 154.734375 C 116.308594 154.675781 116.25 154.632812 116.175781 154.609375 C 115.796875 154.488281 115.425781 154.332031 115.03125 154.253906 C 114.894531 154.226562 114.769531 154.160156 114.625 154.148438 C 114.503906 154.144531 114.375 154.160156 114.269531 154.070312 C 114.25 154.054688 114.210938 154.054688 114.183594 154.0625 C 114.101562 154.082031 114.042969 154.042969 113.972656 154.015625 C 113.820312 153.953125 113.664062 153.902344 113.5 153.902344 C 113.375 153.90625 113.261719 153.878906 113.148438 153.847656 C 113.054688 153.820312 112.96875 153.796875 112.871094 153.789062 C 112.738281 153.773438 112.601562 153.765625 112.480469 153.730469 C 112.113281 153.625 111.742188 153.527344 111.371094 153.4375 C 111.320312 153.425781 111.261719 153.40625 111.21875 153.421875 C 111.078125 153.460938 110.972656 153.40625 110.867188 153.332031 C 110.785156 153.277344 110.691406 153.242188 110.59375 153.242188 C 110.378906 153.246094 110.1875 153.160156 109.996094 153.089844 C 109.839844 153.03125 109.683594 152.992188 109.523438 152.972656 C 109.359375 152.949219 109.199219 152.894531 109.070312 152.808594 C 108.90625 152.703125 108.726562 152.664062 108.550781 152.621094 C 108.425781 152.589844 108.3125 152.554688 108.21875 152.464844 C 108.136719 152.382812 108.042969 152.335938 107.921875 152.339844 C 107.855469 152.34375 107.789062 152.332031 107.730469 152.296875 C 107.589844 152.210938 107.449219 152.128906 107.308594 152.046875 C 107.25 152.011719 107.191406 151.980469 107.136719 151.945312 C 107.074219 151.910156 107 151.921875 106.945312 151.894531 C 106.890625 151.871094 106.859375 151.796875 106.816406 151.75 C 106.796875 151.730469 106.765625 151.714844 106.738281 151.707031 C 106.542969 151.640625 106.386719 151.523438 106.230469 151.394531 C 106.15625 151.335938 106.078125 151.265625 105.992188 151.242188 C 105.867188 151.214844 105.804688 151.136719 105.742188 151.042969 C 105.667969 150.9375 105.582031 150.847656 105.457031 150.804688 C 105.4375 150.796875 105.410156 150.792969 105.398438 150.777344 C 105.261719 150.609375 105.074219 150.492188 104.9375 150.328125 C 104.851562 150.222656 104.757812 150.128906 104.640625 150.0625 C 104.550781 150.007812 104.476562 149.941406 104.4375 149.835938 C 104.398438 149.742188 104.332031 149.65625 104.242188 149.597656 C 104.199219 149.570312 104.152344 149.535156 104.128906 149.492188 C 104.054688 149.359375 103.902344 149.332031 103.796875 149.242188 C 103.769531 149.214844 103.714844 149.214844 103.695312 149.210938 C 103.613281 149.199219 103.5625 149.210938 103.539062 149.265625 C 103.515625 149.308594 103.542969 149.351562 103.570312 149.386719 C 103.578125 149.390625 103.582031 149.398438 103.585938 149.402344 C 103.734375 149.613281 103.960938 149.761719 104.078125 150 C 104.085938 150.015625 104.109375 150.03125 104.128906 150.039062 C 104.210938 150.082031 104.265625 150.15625 104.328125 150.21875 C 104.546875 150.433594 104.761719 150.660156 104.976562 150.882812 C 105.03125 150.9375 105.082031 150.984375 105.15625 151.011719 C 105.207031 151.027344 105.246094 151.0625 105.28125 151.105469 C 105.457031 151.304688 105.660156 151.472656 105.898438 151.597656 C 106 151.644531 106.09375 151.699219 106.175781 151.78125 C 106.25 151.851562 106.300781 151.960938 106.441406 151.960938 C 106.558594 151.964844 106.582031 152.128906 106.703125 152.148438 C 106.808594 152.164062 106.875 152.269531 106.976562 152.289062 C 107.15625 152.324219 107.300781 152.429688 107.457031 152.511719 C 107.601562 152.582031 107.730469 152.691406 107.90625 152.679688 C 107.953125 152.675781 108 152.71875 108.046875 152.742188 C 108.203125 152.828125 108.355469 152.90625 108.523438 152.96875 C 108.832031 153.078125 109.152344 153.144531 109.441406 153.308594 C 109.492188 153.339844 109.550781 153.34375 109.613281 153.351562 C 109.839844 153.386719 110.0625 153.433594 110.269531 153.542969 C 110.371094 153.597656 110.484375 153.636719 110.601562 153.664062 C 110.75 153.699219 110.898438 153.734375 111.058594 153.734375 C 111.148438 153.730469 111.242188 153.777344 111.34375 153.765625 C 111.367188 153.761719 111.402344 153.777344 111.421875 153.796875 C 111.488281 153.859375 111.566406 153.859375 111.648438 153.859375 C 111.691406 153.859375 111.746094 153.855469 111.777344 153.878906 C 111.878906 153.941406 111.988281 153.941406 112.097656 153.964844 C 112.25 153.992188 112.402344 154.015625 112.554688 154.0625 C 112.675781 154.097656 112.800781 154.105469 112.925781 154.125 C 112.976562 154.132812 113.035156 154.128906 113.078125 154.148438 C 113.285156 154.242188 113.511719 154.21875 113.722656 154.296875 C 113.800781 154.328125 113.898438 154.3125 113.964844 154.382812 C 114.003906 154.421875 114.054688 154.425781 114.109375 154.425781 C 114.246094 154.417969 114.375 154.453125 114.503906 154.496094 C 114.621094 154.539062 114.742188 154.574219 114.871094 154.570312 C 114.925781 154.570312 114.972656 154.582031 115.023438 154.605469 C 115.238281 154.707031 115.480469 154.710938 115.707031 154.777344 C 115.828125 154.808594 115.949219 154.835938 116.050781 154.914062 C 116.105469 154.953125 116.160156 154.992188 116.226562 155.007812 Z M 114.429688 175.414062 C 114.285156 175.410156 114.144531 175.421875 114 175.371094 C 113.949219 175.351562 113.878906 175.394531 113.824219 175.382812 C 113.628906 175.332031 113.429688 175.335938 113.234375 175.296875 C 113.109375 175.273438 112.996094 175.246094 112.867188 175.265625 C 112.769531 175.28125 112.65625 175.261719 112.570312 175.222656 C 112.46875 175.179688 112.367188 175.152344 112.269531 175.152344 C 112.070312 175.148438 111.886719 175.039062 111.679688 175.078125 C 111.628906 175.089844 111.5625 175.058594 111.511719 175.027344 C 111.414062 174.964844 111.308594 174.945312 111.195312 174.945312 C 111.160156 174.945312 111.121094 174.941406 111.085938 174.925781 C 110.898438 174.851562 110.703125 174.78125 110.503906 174.730469 C 110.339844 174.691406 110.191406 174.605469 110.027344 174.554688 C 109.800781 174.488281 109.589844 174.386719 109.363281 174.308594 C 109.289062 174.285156 109.207031 174.253906 109.144531 174.203125 C 108.949219 174.050781 108.707031 173.992188 108.484375 173.894531 C 108.34375 173.828125 108.199219 173.769531 108.082031 173.667969 C 107.992188 173.585938 107.890625 173.53125 107.777344 173.492188 C 107.734375 173.480469 107.679688 173.464844 107.660156 173.433594 C 107.574219 173.300781 107.433594 173.273438 107.304688 173.222656 C 107.246094 173.199219 107.191406 173.183594 107.160156 173.128906 C 107.128906 173.070312 107.070312 173.050781 107.011719 173.039062 C 106.945312 173.027344 106.890625 172.984375 106.835938 172.949219 C 106.625 172.816406 106.441406 172.636719 106.210938 172.535156 C 106.085938 172.484375 105.980469 172.394531 105.890625 172.296875 C 105.816406 172.21875 105.734375 172.160156 105.621094 172.164062 C 105.570312 172.164062 105.535156 172.148438 105.515625 172.101562 C 105.5 172.066406 105.476562 172.03125 105.441406 172.023438 C 105.34375 172.011719 105.289062 171.929688 105.21875 171.878906 C 105.09375 171.792969 104.960938 171.707031 104.851562 171.597656 C 104.640625 171.554688 104.507812 171.40625 104.378906 171.25 C 104.371094 171.238281 104.355469 171.230469 104.34375 171.222656 C 104.136719 171.046875 104.105469 171.050781 103.960938 171.285156 C 103.953125 171.296875 103.945312 171.308594 103.941406 171.320312 C 103.921875 171.371094 103.929688 171.421875 103.972656 171.441406 C 104.117188 171.503906 104.207031 171.636719 104.34375 171.710938 C 104.515625 171.800781 104.660156 171.921875 104.8125 172.039062 C 104.929688 172.128906 105.050781 172.214844 105.175781 172.296875 C 105.308594 172.378906 105.449219 172.449219 105.574219 172.539062 C 105.75 172.660156 105.925781 172.785156 106.132812 172.859375 C 106.191406 172.878906 106.242188 172.914062 106.273438 172.964844 C 106.332031 173.066406 106.417969 173.121094 106.539062 173.136719 C 106.617188 173.144531 106.660156 173.214844 106.714844 173.265625 C 106.84375 173.390625 106.988281 173.488281 107.167969 173.527344 C 107.257812 173.550781 107.347656 173.597656 107.398438 173.660156 C 107.488281 173.773438 107.601562 173.824219 107.730469 173.871094 C 107.769531 173.886719 107.8125 173.90625 107.847656 173.929688 C 107.988281 174.03125 108.144531 174.097656 108.308594 174.144531 C 108.351562 174.160156 108.398438 174.167969 108.425781 174.207031 C 108.539062 174.371094 108.757812 174.363281 108.898438 174.480469 C 108.988281 174.46875 109.050781 174.511719 109.109375 174.574219 C 109.167969 174.632812 109.265625 174.613281 109.332031 174.675781 C 109.394531 174.738281 109.480469 174.761719 109.574219 174.777344 C 109.726562 174.800781 109.886719 174.839844 110.011719 174.929688 C 110.15625 175.042969 110.355469 175.019531 110.492188 175.144531 C 110.507812 175.15625 110.535156 175.152344 110.558594 175.148438 C 110.71875 175.121094 110.863281 175.175781 111.007812 175.230469 C 111.175781 175.296875 111.339844 175.378906 111.515625 175.390625 C 111.78125 175.40625 112.035156 175.5 112.300781 175.527344 C 112.523438 175.550781 112.746094 175.597656 112.96875 175.621094 C 113.140625 175.636719 113.300781 175.71875 113.472656 175.683594 C 113.621094 175.769531 113.773438 175.742188 113.929688 175.71875 C 114.046875 175.703125 114.164062 175.699219 114.273438 175.769531 C 114.3125 175.792969 114.359375 175.804688 114.402344 175.792969 C 114.496094 175.773438 114.589844 175.753906 114.675781 175.789062 C 114.742188 175.792969 114.792969 175.78125 114.816406 175.726562 C 114.84375 175.671875 114.816406 175.625 114.78125 175.585938 C 114.6875 175.480469 114.550781 175.417969 114.429688 175.414062 Z M 129.535156 168.15625 C 129.519531 168.121094 129.484375 168.09375 129.445312 168.101562 C 129.351562 168.117188 129.253906 168.140625 129.207031 168.238281 C 129.15625 168.363281 129.105469 168.488281 129.0625 168.613281 C 129.027344 168.71875 128.984375 168.8125 128.921875 168.910156 C 128.863281 169.003906 128.859375 169.132812 128.785156 169.230469 C 128.761719 169.261719 128.753906 169.304688 128.726562 169.324219 C 128.558594 169.433594 128.515625 169.625 128.433594 169.78125 C 128.351562 169.9375 128.257812 170.074219 128.160156 170.210938 C 128.128906 170.253906 128.089844 170.289062 128.066406 170.335938 C 127.945312 170.527344 127.832031 170.726562 127.609375 170.824219 C 127.589844 170.832031 127.570312 170.851562 127.558594 170.867188 C 127.433594 171.035156 127.277344 171.171875 127.136719 171.316406 C 126.984375 171.46875 126.820312 171.609375 126.671875 171.761719 C 126.585938 171.855469 126.496094 171.941406 126.371094 171.984375 C 126.34375 171.996094 126.320312 172.015625 126.300781 172.039062 C 126.15625 172.207031 126.003906 172.363281 125.792969 172.453125 C 125.710938 172.488281 125.644531 172.554688 125.601562 172.632812 C 125.550781 172.726562 125.457031 172.75 125.378906 172.804688 C 125.304688 172.855469 125.277344 172.964844 125.171875 173 C 125.078125 173.027344 125.015625 173.101562 124.941406 173.167969 C 124.792969 173.296875 124.652344 173.445312 124.445312 173.488281 C 124.417969 173.496094 124.390625 173.515625 124.371094 173.535156 C 124.308594 173.605469 124.242188 173.679688 124.1875 173.757812 C 124.144531 173.816406 124.101562 173.886719 124.152344 173.960938 C 124.1875 174.015625 124.296875 174.03125 124.382812 174 C 124.402344 173.992188 124.421875 173.980469 124.4375 173.964844 C 124.652344 173.761719 124.96875 173.691406 125.128906 173.425781 C 125.292969 173.402344 125.375 173.253906 125.507812 173.183594 C 125.542969 173.167969 125.570312 173.148438 125.59375 173.117188 C 125.683594 172.988281 125.816406 172.890625 125.941406 172.8125 C 126.136719 172.6875 126.296875 172.523438 126.503906 172.417969 C 126.542969 172.398438 126.578125 172.367188 126.597656 172.324219 C 126.664062 172.167969 126.792969 172.074219 126.9375 171.992188 C 127.0625 171.925781 127.179688 171.851562 127.238281 171.707031 C 127.253906 171.667969 127.28125 171.621094 127.316406 171.605469 C 127.441406 171.554688 127.519531 171.464844 127.582031 171.347656 C 127.597656 171.320312 127.636719 171.300781 127.667969 171.28125 C 127.792969 171.199219 127.910156 171.109375 127.960938 170.957031 C 127.96875 170.925781 128.003906 170.898438 128.03125 170.875 C 128.15625 170.78125 128.226562 170.632812 128.355469 170.539062 C 128.398438 170.511719 128.421875 170.457031 128.429688 170.40625 C 128.441406 170.300781 128.507812 170.234375 128.585938 170.171875 C 128.675781 170.101562 128.730469 170.011719 128.769531 169.902344 C 128.8125 169.777344 128.878906 169.660156 128.960938 169.554688 C 129.0625 169.425781 129.132812 169.28125 129.207031 169.140625 C 129.285156 168.988281 129.378906 168.839844 129.40625 168.667969 C 129.414062 168.628906 129.441406 168.585938 129.472656 168.554688 C 129.550781 168.476562 129.558594 168.386719 129.554688 168.253906 C 129.554688 168.242188 129.546875 168.199219 129.535156 168.15625 Z M 141.050781 164.523438 C 140.964844 164.457031 140.835938 164.449219 140.769531 164.53125 C 140.675781 164.644531 140.519531 164.699219 140.472656 164.855469 C 140.464844 164.878906 140.433594 164.902344 140.40625 164.910156 C 140.257812 164.945312 140.191406 165.058594 140.132812 165.179688 C 140.117188 165.214844 140.109375 165.257812 140.082031 165.277344 C 139.96875 165.355469 139.921875 165.488281 139.816406 165.570312 C 139.71875 165.648438 139.640625 165.753906 139.570312 165.855469 C 139.4375 166.046875 139.265625 166.203125 139.167969 166.414062 C 139.160156 166.425781 139.152344 166.441406 139.136719 166.445312 C 139.039062 166.5 139 166.597656 138.945312 166.683594 C 138.921875 166.722656 138.898438 166.765625 138.867188 166.792969 C 138.71875 166.917969 138.589844 167.0625 138.53125 167.253906 C 138.523438 167.273438 138.507812 167.296875 138.492188 167.304688 C 138.410156 167.359375 138.382812 167.449219 138.347656 167.527344 C 138.285156 167.660156 138.234375 167.800781 138.117188 167.898438 C 138.097656 167.914062 138.085938 167.949219 138.074219 167.976562 C 138.046875 168.066406 138.011719 168.160156 137.992188 168.253906 C 137.96875 168.351562 137.863281 168.390625 137.835938 168.492188 C 137.777344 168.695312 137.640625 168.867188 137.609375 169.085938 C 137.59375 169.183594 137.542969 169.28125 137.472656 169.363281 C 137.328125 169.53125 137.292969 169.75 137.238281 169.953125 C 137.203125 170.078125 137.265625 170.136719 137.390625 170.132812 C 137.527344 170.128906 137.570312 170.097656 137.5625 169.964844 C 137.558594 169.871094 137.597656 169.804688 137.660156 169.753906 C 137.738281 169.691406 137.765625 169.613281 137.765625 169.519531 C 137.765625 169.417969 137.800781 169.335938 137.863281 169.253906 C 137.945312 169.140625 138.027344 169.027344 138.046875 168.882812 C 138.054688 168.832031 138.085938 168.78125 138.121094 168.746094 C 138.214844 168.644531 138.257812 168.515625 138.296875 168.390625 C 138.359375 168.191406 138.441406 168.003906 138.601562 167.859375 C 138.628906 167.835938 138.644531 167.800781 138.652344 167.765625 C 138.675781 167.585938 138.828125 167.480469 138.914062 167.335938 C 138.945312 167.28125 138.988281 167.234375 139.015625 167.171875 C 139.0625 167.066406 139.105469 166.957031 139.183594 166.863281 C 139.355469 166.660156 139.550781 166.476562 139.695312 166.253906 C 139.789062 166.113281 139.9375 166.011719 139.972656 165.832031 C 139.984375 165.78125 140.035156 165.75 140.078125 165.722656 C 140.191406 165.648438 140.277344 165.546875 140.359375 165.441406 C 140.476562 165.28125 140.589844 165.105469 140.753906 164.996094 C 140.902344 164.902344 140.972656 164.761719 141.074219 164.640625 C 141.105469 164.601562 141.09375 164.554688 141.050781 164.523438 Z M 144 161.71875 C 143.925781 161.675781 143.84375 161.664062 143.8125 161.714844 C 143.738281 161.828125 143.660156 161.933594 143.535156 162.003906 C 143.503906 162.023438 143.5 162.082031 143.480469 162.125 C 143.460938 162.175781 143.429688 162.214844 143.367188 162.214844 C 143.296875 162.210938 143.265625 162.265625 143.230469 162.3125 C 143.105469 162.480469 142.984375 162.648438 142.808594 162.765625 C 142.785156 162.78125 142.769531 162.808594 142.75 162.832031 C 142.695312 162.910156 142.628906 162.980469 142.5625 163.050781 C 142.460938 163.15625 142.332031 163.238281 142.257812 163.371094 C 142.234375 163.414062 142.195312 163.421875 142.148438 163.433594 C 142.03125 163.460938 142.003906 163.5 142.003906 163.625 C 142.003906 163.636719 142.003906 163.660156 142.007812 163.683594 C 142.03125 163.8125 142.117188 163.847656 142.226562 163.777344 C 142.382812 163.671875 142.574219 163.613281 142.667969 163.425781 C 142.679688 163.402344 142.714844 163.382812 142.742188 163.375 C 142.839844 163.347656 142.878906 163.273438 142.914062 163.1875 C 142.933594 163.132812 142.960938 163.074219 143.019531 163.046875 C 143.191406 162.96875 143.308594 162.820312 143.433594 162.6875 C 143.617188 162.492188 143.800781 162.300781 143.957031 162.082031 C 144.003906 162.015625 144.050781 161.949219 144.070312 161.867188 C 144.085938 161.804688 144.054688 161.753906 144 161.71875 Z M 109.242188 157.148438 C 109.539062 157.117188 109.785156 157.015625 110.015625 156.875 C 110.03125 156.863281 110.046875 156.84375 110.058594 156.824219 C 110.109375 156.757812 110.140625 156.664062 110.261719 156.683594 C 110.277344 156.6875 110.3125 156.652344 110.324219 156.628906 C 110.359375 156.546875 110.429688 156.515625 110.507812 156.480469 C 110.609375 156.4375 110.707031 156.371094 110.765625 156.28125 C 110.835938 156.167969 110.925781 156.089844 111.046875 156.035156 C 111.253906 155.945312 111.367188 155.765625 111.472656 155.578125 C 111.515625 155.503906 111.480469 155.402344 111.417969 155.355469 C 111.371094 155.320312 111.308594 155.332031 111.238281 155.390625 C 111.183594 155.441406 111.132812 155.496094 111.089844 155.558594 C 111.027344 155.644531 110.960938 155.71875 110.847656 155.738281 C 110.796875 155.746094 110.753906 155.777344 110.71875 155.820312 C 110.550781 156.03125 110.285156 156.125 110.117188 156.332031 C 109.925781 156.425781 109.789062 156.609375 109.570312 156.660156 C 109.542969 156.667969 109.519531 156.691406 109.496094 156.710938 C 109.390625 156.785156 109.300781 156.886719 109.160156 156.917969 C 109.101562 156.929688 109.085938 157.011719 109.121094 157.066406 C 109.15625 157.117188 109.207031 157.148438 109.242188 157.148438 Z M 103.132812 148.175781 C 103.070312 148.128906 103.03125 148.082031 103.015625 148.003906 C 102.996094 147.890625 102.953125 147.789062 102.835938 147.738281 C 102.792969 147.71875 102.773438 147.675781 102.757812 147.632812 C 102.691406 147.464844 102.5625 147.320312 102.519531 147.136719 C 102.511719 147.113281 102.492188 147.085938 102.46875 147.066406 C 102.382812 146.984375 102.304688 146.898438 102.246094 146.792969 C 102.226562 146.75 102.179688 146.730469 102.132812 146.746094 C 102.082031 146.757812 102.058594 146.792969 102.050781 146.839844 C 102.039062 146.921875 102.035156 147.003906 102.078125 147.078125 C 102.105469 147.125 102.132812 147.171875 102.128906 147.226562 C 102.128906 147.3125 102.171875 147.371094 102.230469 147.4375 C 102.328125 147.535156 102.433594 147.640625 102.472656 147.777344 C 102.5 147.875 102.558594 147.949219 102.597656 148.035156 C 102.695312 148.242188 102.867188 148.402344 102.972656 148.605469 C 103.003906 148.667969 103.058594 148.703125 103.125 148.722656 C 103.25 148.765625 103.332031 148.710938 103.332031 148.582031 C 103.335938 148.449219 103.25 148.257812 103.132812 148.175781 Z M 123.902344 147.519531 C 123.988281 147.402344 124.109375 147.292969 124.144531 147.152344 C 124.207031 146.90625 124.289062 146.671875 124.410156 146.453125 C 124.535156 146.234375 124.597656 146.003906 124.636719 145.765625 C 124.65625 145.625 124.609375 145.566406 124.472656 145.570312 C 124.390625 145.570312 124.359375 145.59375 124.34375 145.6875 C 124.332031 145.738281 124.339844 145.789062 124.304688 145.835938 C 124.234375 145.933594 124.214844 146.050781 124.164062 146.160156 C 124.070312 146.351562 123.976562 146.542969 123.910156 146.746094 C 123.910156 146.753906 123.902344 146.757812 123.898438 146.765625 C 123.800781 146.910156 123.78125 147.082031 123.710938 147.238281 C 123.664062 147.332031 123.707031 147.425781 123.765625 147.503906 C 123.804688 147.550781 123.871094 147.5625 123.902344 147.519531 Z M 117.761719 175.5 C 117.625 175.515625 117.484375 175.480469 117.347656 175.523438 C 117.226562 175.558594 117.101562 175.578125 116.976562 175.535156 C 116.941406 175.523438 116.902344 175.535156 116.867188 175.535156 C 116.757812 175.542969 116.65625 175.582031 116.539062 175.5625 C 116.425781 175.546875 116.3125 175.605469 116.191406 175.582031 C 116.117188 175.566406 116.066406 175.621094 116.054688 175.695312 C 116.03125 175.792969 116.054688 175.886719 116.121094 175.910156 C 116.210938 175.941406 116.308594 175.976562 116.402344 175.941406 C 116.597656 175.863281 116.792969 175.878906 116.992188 175.910156 C 117.058594 175.921875 117.121094 175.910156 117.1875 175.90625 C 117.355469 175.894531 117.511719 175.792969 117.660156 175.839844 C 117.746094 175.839844 117.808594 175.84375 117.867188 175.835938 C 117.972656 175.828125 118.003906 175.773438 117.96875 175.667969 C 117.9375 175.566406 117.859375 175.488281 117.761719 175.5 Z M 132.578125 167.011719 C 132.566406 167.011719 132.554688 166.992188 132.550781 166.976562 C 132.53125 166.898438 132.46875 166.855469 132.410156 166.816406 C 132.25 166.707031 132.085938 166.609375 131.921875 166.511719 C 131.902344 166.5 131.878906 166.496094 131.867188 166.492188 C 131.808594 166.492188 131.773438 166.519531 131.757812 166.5625 C 131.742188 166.605469 131.753906 166.648438 131.765625 166.691406 C 131.820312 166.871094 131.976562 166.972656 132.101562 167.085938 C 132.226562 167.203125 132.394531 167.269531 132.5 167.417969 C 132.539062 167.472656 132.609375 167.492188 132.675781 167.496094 C 132.761719 167.496094 132.828125 167.421875 132.789062 167.351562 C 132.730469 167.234375 132.796875 167.03125 132.578125 167.011719 Z M 106.628906 134.648438 C 106.734375 134.621094 106.8125 134.527344 106.808594 134.429688 C 106.808594 134.382812 106.796875 134.339844 106.773438 134.304688 C 106.738281 134.25 106.675781 134.230469 106.621094 134.257812 C 106.488281 134.316406 106.441406 134.492188 106.53125 134.609375 C 106.554688 134.640625 106.585938 134.65625 106.628906 134.648438 Z M 103.84375 156.277344 C 103.757812 156.292969 103.679688 156.335938 103.609375 156.390625 C 103.597656 156.402344 103.585938 156.429688 103.585938 156.449219 C 103.585938 156.539062 103.742188 156.632812 103.820312 156.589844 C 103.902344 156.542969 103.9375 156.460938 103.949219 156.386719 C 103.945312 156.320312 103.894531 156.269531 103.84375 156.277344 Z M 99.480469 165.9375 C 99.414062 165.949219 99.402344 166.019531 99.382812 166.074219 C 99.375 166.09375 99.375 166.117188 99.371094 166.132812 C 99.367188 166.21875 99.402344 166.285156 99.460938 166.304688 C 99.53125 166.328125 99.566406 166.277344 99.605469 166.230469 C 99.617188 166.21875 99.625 166.207031 99.632812 166.195312 C 99.671875 166.140625 99.683594 166.085938 99.644531 166.03125 C 99.605469 165.972656 99.554688 165.925781 99.480469 165.9375 Z M 147.046875 144.785156 C 146.984375 144.757812 146.9375 144.800781 146.894531 144.839844 C 146.882812 144.851562 146.871094 144.863281 146.863281 144.875 C 146.800781 144.949219 146.816406 145.027344 146.90625 145.070312 C 147.027344 145.132812 147.125 145.070312 147.121094 144.929688 C 147.121094 144.871094 147.113281 144.808594 147.046875 144.785156 Z M 147.046875 144.785156 "/><g transform="matrix(1,0,0,1,44,152)"><g clip-path="url(#f6448c04ac)"><g style="fill:#000000;fill-opacity:1;"><g transform="translate(1.080436, 72.425734)"><path style="stroke:none" d="M 12.328125 -31.234375 C 13.554688 -33.835938 15.390625 -35.800781 17.828125 -37.125 C 20.265625 -38.457031 23.28125 -39.125 26.875 -39.125 L 26.875 -34.03125 L 25.625 -34.109375 C 21.53125 -34.109375 18.328125 -32.851562 16.015625 -30.34375 C 13.703125 -27.832031 12.546875 -24.3125 12.546875 -19.78125 L 12.546875 0 L 7.3125 0 L 7.3125 -38.828125 L 12.328125 -38.828125 Z M 12.328125 -31.234375 "/></g></g><g style="fill:#000000;fill-opacity:1;"><g transform="translate(18.423348, 72.425734)"><path style="stroke:none" d="M 23.1875 0.375 C 19.445312 0.375 16.070312 -0.472656 13.0625 -2.171875 C 10.0625 -3.867188 7.695312 -6.21875 5.96875 -9.21875 C 4.25 -12.226562 3.390625 -15.628906 3.390625 -19.421875 C 3.390625 -23.210938 4.25 -26.609375 5.96875 -29.609375 C 7.695312 -32.609375 10.0625 -34.941406 13.0625 -36.609375 C 16.070312 -38.285156 19.445312 -39.125 23.1875 -39.125 C 26.925781 -39.125 30.296875 -38.285156 33.296875 -36.609375 C 36.296875 -34.941406 38.644531 -32.609375 40.34375 -29.609375 C 42.039062 -26.609375 42.890625 -23.210938 42.890625 -19.421875 C 42.890625 -15.628906 42.039062 -12.226562 40.34375 -9.21875 C 38.644531 -6.21875 36.296875 -3.867188 33.296875 -2.171875 C 30.296875 -0.472656 26.925781 0.375 23.1875 0.375 Z M 23.1875 -4.28125 C 25.9375 -4.28125 28.40625 -4.90625 30.59375 -6.15625 C 32.789062 -7.414062 34.503906 -9.203125 35.734375 -11.515625 C 36.960938 -13.828125 37.578125 -16.460938 37.578125 -19.421875 C 37.578125 -22.367188 36.960938 -25 35.734375 -27.3125 C 34.503906 -29.625 32.789062 -31.40625 30.59375 -32.65625 C 28.40625 -33.914062 25.9375 -34.546875 23.1875 -34.546875 C 20.425781 -34.546875 17.953125 -33.914062 15.765625 -32.65625 C 13.578125 -31.40625 11.851562 -29.625 10.59375 -27.3125 C 9.34375 -25 8.71875 -22.367188 8.71875 -19.421875 C 8.71875 -16.460938 9.34375 -13.828125 10.59375 -11.515625 C 11.851562 -9.203125 13.578125 -7.414062 15.765625 -6.15625 C 17.953125 -4.90625 20.425781 -4.28125 23.1875 -4.28125 Z M 23.1875 -4.28125 "/></g></g><g style="fill:#000000;fill-opacity:1;"><g transform="translate(53.408083, 72.425734)"><path style="stroke:none" d="M 23.1875 0.375 C 19.445312 0.375 16.070312 -0.472656 13.0625 -2.171875 C 10.0625 -3.867188 7.695312 -6.21875 5.96875 -9.21875 C 4.25 -12.226562 3.390625 -15.628906 3.390625 -19.421875 C 3.390625 -23.210938 4.25 -26.609375 5.96875 -29.609375 C 7.695312 -32.609375 10.0625 -34.941406 13.0625 -36.609375 C 16.070312 -38.285156 19.445312 -39.125 23.1875 -39.125 C 26.925781 -39.125 30.296875 -38.285156 33.296875 -36.609375 C 36.296875 -34.941406 38.644531 -32.609375 40.34375 -29.609375 C 42.039062 -26.609375 42.890625 -23.210938 42.890625 -19.421875 C 42.890625 -15.628906 42.039062 -12.226562 40.34375 -9.21875 C 38.644531 -6.21875 36.296875 -3.867188 33.296875 -2.171875 C 30.296875 -0.472656 26.925781 0.375 23.1875 0.375 Z M 23.1875 -4.28125 C 25.9375 -4.28125 28.40625 -4.90625 30.59375 -6.15625 C 32.789062 -7.414062 34.503906 -9.203125 35.734375 -11.515625 C 36.960938 -13.828125 37.578125 -16.460938 37.578125 -19.421875 C 37.578125 -22.367188 36.960938 -25 35.734375 -27.3125 C 34.503906 -29.625 32.789062 -31.40625 30.59375 -32.65625 C 28.40625 -33.914062 25.9375 -34.546875 23.1875 -34.546875 C 20.425781 -34.546875 17.953125 -33.914062 15.765625 -32.65625 C 13.578125 -31.40625 11.851562 -29.625 10.59375 -27.3125 C 9.34375 -25 8.71875 -22.367188 8.71875 -19.421875 C 8.71875 -16.460938 9.34375 -13.828125 10.59375 -11.515625 C 11.851562 -9.203125 13.578125 -7.414062 15.765625 -6.15625 C 17.953125 -4.90625 20.425781 -4.28125 23.1875 -4.28125 Z M 23.1875 -4.28125 "/></g></g><g style="fill:#000000;fill-opacity:1;"><g transform="translate(88.392819, 72.425734)"><path style="stroke:none" d="M 27.765625 -2.359375 C 26.773438 -1.472656 25.550781 -0.796875 24.09375 -0.328125 C 22.644531 0.140625 21.132812 0.375 19.5625 0.375 C 15.914062 0.375 13.109375 -0.609375 11.140625 -2.578125 C 9.171875 -4.546875 8.1875 -7.328125 8.1875 -10.921875 L 8.1875 -34.40625 L 1.25 -34.40625 L 1.25 -38.828125 L 8.1875 -38.828125 L 8.1875 -47.328125 L 13.4375 -47.328125 L 13.4375 -38.828125 L 25.25 -38.828125 L 25.25 -34.40625 L 13.4375 -34.40625 L 13.4375 -11.21875 C 13.4375 -8.90625 14.015625 -7.144531 15.171875 -5.9375 C 16.328125 -4.738281 17.988281 -4.140625 20.15625 -4.140625 C 21.238281 -4.140625 22.285156 -4.3125 23.296875 -4.65625 C 24.304688 -5 25.175781 -5.488281 25.90625 -6.125 Z M 27.765625 -2.359375 "/></g></g></g></g><g transform="matrix(1,0,0,1,161,138)"><g clip-path="url(#1311525a85)"><g style="fill:#136d41;fill-opacity:1;"><g transform="translate(0.656283, 86.010313)"><path style="stroke:none" d="M 54.96875 -57.59375 L 54.96875 0 L 40.9375 0 L 40.9375 -23.703125 L 19.109375 -23.703125 L 19.109375 0 L 5.09375 0 L 5.09375 -57.59375 L 19.109375 -57.59375 L 19.109375 -35.03125 L 40.9375 -35.03125 L 40.9375 -57.59375 Z M 54.96875 -57.59375 "/></g></g><g style="fill:#136d41;fill-opacity:1;"><g transform="translate(54.130569, 86.010313)"><path style="stroke:none" d="M 50.28125 -45.78125 L 50.28125 0 L 36.265625 0 L 36.265625 -6.234375 C 34.835938 -4.210938 32.90625 -2.582031 30.46875 -1.34375 C 28.039062 -0.113281 25.347656 0.5 22.390625 0.5 C 18.890625 0.5 15.800781 -0.28125 13.125 -1.84375 C 10.445312 -3.40625 8.367188 -5.660156 6.890625 -8.609375 C 5.410156 -11.566406 4.671875 -15.039062 4.671875 -19.03125 L 4.671875 -45.78125 L 18.625 -45.78125 L 18.625 -20.921875 C 18.625 -17.859375 19.414062 -15.476562 21 -13.78125 C 22.582031 -12.082031 24.71875 -11.234375 27.40625 -11.234375 C 30.132812 -11.234375 32.289062 -12.082031 33.875 -13.78125 C 35.46875 -15.476562 36.265625 -17.859375 36.265625 -20.921875 L 36.265625 -45.78125 Z M 50.28125 -45.78125 "/></g></g><g style="fill:#136d41;fill-opacity:1;"><g transform="translate(102.929836, 86.010313)"><path style="stroke:none" d="M 19.109375 -39.296875 C 20.421875 -41.429688 22.304688 -43.15625 24.765625 -44.46875 C 27.234375 -45.78125 30.050781 -46.4375 33.21875 -46.4375 C 37 -46.4375 40.421875 -45.476562 43.484375 -43.5625 C 46.546875 -41.644531 48.960938 -38.910156 50.734375 -35.359375 C 52.515625 -31.804688 53.40625 -27.675781 53.40625 -22.96875 C 53.40625 -18.269531 52.515625 -14.128906 50.734375 -10.546875 C 48.960938 -6.960938 46.546875 -4.195312 43.484375 -2.25 C 40.421875 -0.3125 37 0.65625 33.21875 0.65625 C 30 0.65625 27.1875 0.015625 24.78125 -1.265625 C 22.375 -2.554688 20.484375 -4.269531 19.109375 -6.40625 L 19.109375 0 L 5.09375 0 L 5.09375 -60.703125 L 19.109375 -60.703125 Z M 39.125 -22.96875 C 39.125 -26.46875 38.15625 -29.210938 36.21875 -31.203125 C 34.28125 -33.203125 31.890625 -34.203125 29.046875 -34.203125 C 26.253906 -34.203125 23.882812 -33.191406 21.9375 -31.171875 C 20 -29.148438 19.03125 -26.390625 19.03125 -22.890625 C 19.03125 -19.390625 20 -16.625 21.9375 -14.59375 C 23.882812 -12.570312 26.253906 -11.5625 29.046875 -11.5625 C 31.828125 -11.5625 34.203125 -12.585938 36.171875 -14.640625 C 38.140625 -16.691406 39.125 -19.46875 39.125 -22.96875 Z M 39.125 -22.96875 "/></g></g></g></g><g transform="matrix(1,0,0,1,290,122)"><g clip-path="url(#df8c09bdc5)"><g clip-rule="nonzero" clip-path="url(#032e6e735d)"><g style="fill:#136d41;fill-opacity:1;"><g transform="translate(0.599732, 85.817448)"><path style="stroke:none" d="M 57.828125 3.359375 L 57.828125 16.8125 L 6.96875 16.8125 L 6.96875 3.359375 Z M 57.828125 3.359375 "/></g></g></g></g></g></g></svg>